<?xml version="1.0" standalone="no"?>
<!DOCTYPE svg PUBLIC "-//W3C//DTD SVG 20010904//EN"
 "http://www.w3.org/TR/2001/REC-SVG-20010904/DTD/svg10.dtd">
<svg version="1.0" xmlns="http://www.w3.org/2000/svg"
 width="560.000000pt" height="560.000000pt" viewBox="0 0 560.000000 560.000000"
 preserveAspectRatio="xMidYMid meet">
<metadata>
Created by potrace 1.14, written by Peter Selinger 2001-2017
</metadata>
<g transform="translate(0.000000,560.000000) scale(0.100000,-0.100000)"
fill="#000000" stroke="none">
<path d="M2670 5073 c-74 -8 -268 -45 -325 -63 -67 -20 -165 -65 -209 -95 -58
-40 -189 -172 -235 -237 -46 -65 -52 -69 -183 -136 -245 -124 -426 -257 -628
-461 -189 -191 -320 -373 -440 -614 -89 -175 -171 -415 -206 -601 -2 -12 -6
-32 -8 -46 -28 -143 -35 -249 -31 -465 5 -298 45 -524 140 -781 252 -685 812
-1227 1498 -1452 159 -52 353 -96 497 -111 126 -13 430 -11 550 4 710 90 1333
479 1722 1075 147 225 275 530 332 790 44 203 54 306 53 525 0 160 -17 352
-42 470 -79 381 -253 747 -501 1051 -198 244 -495 480 -790 627 -58 29 -77 45
-98 81 -39 67 -171 196 -251 247 -127 81 -316 156 -441 174 -21 4 -50 9 -64
11 -31 7 -291 11 -340 7z"/>
</g>
</svg>
